<mxfile host="drawio-plugin" modified="2022-11-08T14:16:29.407Z" agent="5.0 (Windows NT 6.2; Win64; x64) AppleWebKit/537.36 (KHTML, like Gecko) Chrome/98.0.4758.102 Safari/537.36" etag="2sQ-v03_ZITHnUlh1GZV" version="15.5.4" type="embed"><diagram id="-vgb92WjjS_-MJ9FYiEt" name="Page-1"><mxGraphModel dx="1101" dy="1904" grid="1" gridSize="10" guides="1" tooltips="1" connect="1" arrows="1" fold="1" page="1" pageScale="1" pageWidth="827" pageHeight="1169" math="0" shadow="0"><root><mxCell id="0"/><mxCell id="1" parent="0"/><mxCell id="OSePSIK68hOwo7QI4U12-21" value="" style="rounded=0;whiteSpace=wrap;html=1;" parent="1" vertex="1"><mxGeometry x="160" y="-40" width="480" height="790" as="geometry"/></mxCell><mxCell id="kz2ULfPdmGK-9Kz2NV-o-21" style="edgeStyle=none;rounded=0;orthogonalLoop=1;jettySize=auto;html=1;exitX=1;exitY=0.3333333333333333;exitDx=0;exitDy=0;exitPerimeter=0;entryX=0;entryY=0.5;entryDx=0;entryDy=0;endArrow=open;endFill=0;startArrow=none;startFill=0;" parent="1" source="kz2ULfPdmGK-9Kz2NV-o-1" target="kz2ULfPdmGK-9Kz2NV-o-9" edge="1"><mxGeometry relative="1" as="geometry"/></mxCell><mxCell id="kz2ULfPdmGK-9Kz2NV-o-1" value="Producteur" style="shape=umlActor;verticalLabelPosition=bottom;verticalAlign=top;html=1;" parent="1" vertex="1"><mxGeometry x="40" y="170" width="30" height="60" as="geometry"/></mxCell><mxCell id="kz2ULfPdmGK-9Kz2NV-o-2" value="Administrateur" style="shape=umlActor;verticalLabelPosition=bottom;verticalAlign=top;html=1;" parent="1" vertex="1"><mxGeometry x="40" y="577.5" width="30" height="60" as="geometry"/></mxCell><mxCell id="kz2ULfPdmGK-9Kz2NV-o-6" value="&lt;div&gt;&amp;lt;&amp;lt;Système&amp;gt;&amp;gt;&lt;/div&gt;&lt;div&gt;OpenStreetMap&lt;br&gt;&lt;/div&gt;" style="shape=umlActor;verticalLabelPosition=bottom;verticalAlign=top;html=1;outlineConnect=0;" parent="1" vertex="1"><mxGeometry x="730" y="210" width="30" height="60" as="geometry"/></mxCell><mxCell id="kz2ULfPdmGK-9Kz2NV-o-19" style="rounded=0;orthogonalLoop=1;jettySize=auto;html=1;exitX=1;exitY=0.5;exitDx=0;exitDy=0;entryX=0;entryY=0.3333333333333333;entryDx=0;entryDy=0;entryPerimeter=0;endArrow=open;endFill=0;" parent="1" source="kz2ULfPdmGK-9Kz2NV-o-7" target="kz2ULfPdmGK-9Kz2NV-o-6" edge="1"><mxGeometry relative="1" as="geometry"/></mxCell><mxCell id="kz2ULfPdmGK-9Kz2NV-o-20" style="edgeStyle=none;rounded=0;orthogonalLoop=1;jettySize=auto;html=1;exitX=0;exitY=0.5;exitDx=0;exitDy=0;entryX=1;entryY=0.3333333333333333;entryDx=0;entryDy=0;entryPerimeter=0;endArrow=none;endFill=0;startArrow=open;startFill=0;" parent="1" source="kz2ULfPdmGK-9Kz2NV-o-7" target="kz2ULfPdmGK-9Kz2NV-o-1" edge="1"><mxGeometry relative="1" as="geometry"/></mxCell><mxCell id="OSePSIK68hOwo7QI4U12-8" style="edgeStyle=none;rounded=0;orthogonalLoop=1;jettySize=auto;html=1;exitX=0;exitY=1;exitDx=0;exitDy=0;entryX=0;entryY=0;entryDx=0;entryDy=0;endArrow=open;endFill=0;dashed=1;" parent="1" source="kz2ULfPdmGK-9Kz2NV-o-7" target="kz2ULfPdmGK-9Kz2NV-o-10" edge="1"><mxGeometry relative="1" as="geometry"/></mxCell><mxCell id="kz2ULfPdmGK-9Kz2NV-o-7" value="Visualiser un itinéraire" style="ellipse;whiteSpace=wrap;html=1;fillColor=#f8cecc;strokeColor=#b85450;" parent="1" vertex="1"><mxGeometry x="220" y="90" width="260" height="40" as="geometry"/></mxCell><mxCell id="kz2ULfPdmGK-9Kz2NV-o-9" value="Créer un itinéraire" style="ellipse;whiteSpace=wrap;html=1;fillColor=#f8cecc;strokeColor=#b85450;" parent="1" vertex="1"><mxGeometry x="220" y="40" width="260" height="40" as="geometry"/></mxCell><mxCell id="kz2ULfPdmGK-9Kz2NV-o-22" style="edgeStyle=none;rounded=0;orthogonalLoop=1;jettySize=auto;html=1;exitX=0;exitY=0.5;exitDx=0;exitDy=0;endArrow=none;endFill=0;startArrow=open;startFill=0;" parent="1" source="kz2ULfPdmGK-9Kz2NV-o-10" edge="1"><mxGeometry relative="1" as="geometry"><mxPoint x="70" y="190" as="targetPoint"/></mxGeometry></mxCell><mxCell id="kz2ULfPdmGK-9Kz2NV-o-10" value="Modifier un itinéraire" style="ellipse;whiteSpace=wrap;html=1;fillColor=#f8cecc;strokeColor=#b85450;" parent="1" vertex="1"><mxGeometry x="220" y="170" width="120" height="40" as="geometry"/></mxCell><mxCell id="kz2ULfPdmGK-9Kz2NV-o-23" style="edgeStyle=none;rounded=0;orthogonalLoop=1;jettySize=auto;html=1;exitX=0;exitY=0.5;exitDx=0;exitDy=0;entryX=1;entryY=0.3333333333333333;entryDx=0;entryDy=0;entryPerimeter=0;endArrow=none;endFill=0;startArrow=open;startFill=0;" parent="1" source="kz2ULfPdmGK-9Kz2NV-o-11" target="kz2ULfPdmGK-9Kz2NV-o-1" edge="1"><mxGeometry relative="1" as="geometry"/></mxCell><mxCell id="kz2ULfPdmGK-9Kz2NV-o-11" value="Rentrer les commandes des clients" style="ellipse;whiteSpace=wrap;html=1;fillColor=#f8cecc;strokeColor=#b85450;" parent="1" vertex="1"><mxGeometry x="220" y="220" width="260" height="40" as="geometry"/></mxCell><mxCell id="kz2ULfPdmGK-9Kz2NV-o-24" style="edgeStyle=none;rounded=0;orthogonalLoop=1;jettySize=auto;html=1;exitX=0;exitY=0.5;exitDx=0;exitDy=0;entryX=1;entryY=0.3333333333333333;entryDx=0;entryDy=0;entryPerimeter=0;endArrow=none;endFill=0;" parent="1" source="kz2ULfPdmGK-9Kz2NV-o-12" target="kz2ULfPdmGK-9Kz2NV-o-1" edge="1"><mxGeometry relative="1" as="geometry"/></mxCell><mxCell id="OSePSIK68hOwo7QI4U12-20" style="edgeStyle=none;rounded=0;orthogonalLoop=1;jettySize=auto;html=1;exitX=0;exitY=1;exitDx=0;exitDy=0;entryX=0;entryY=0;entryDx=0;entryDy=0;endArrow=open;endFill=0;dashed=1;" parent="1" source="kz2ULfPdmGK-9Kz2NV-o-12" target="OSePSIK68hOwo7QI4U12-9" edge="1"><mxGeometry relative="1" as="geometry"/></mxCell><mxCell id="kz2ULfPdmGK-9Kz2NV-o-12" value="Consulter des commandes" style="ellipse;whiteSpace=wrap;html=1;fillColor=#f8cecc;strokeColor=#b85450;" parent="1" vertex="1"><mxGeometry x="220" y="270" width="260" height="40" as="geometry"/></mxCell><mxCell id="kz2ULfPdmGK-9Kz2NV-o-25" style="edgeStyle=none;rounded=0;orthogonalLoop=1;jettySize=auto;html=1;exitX=0;exitY=0.5;exitDx=0;exitDy=0;entryX=1;entryY=0.3333333333333333;entryDx=0;entryDy=0;entryPerimeter=0;endArrow=none;endFill=0;" parent="1" source="kz2ULfPdmGK-9Kz2NV-o-13" target="kz2ULfPdmGK-9Kz2NV-o-1" edge="1"><mxGeometry relative="1" as="geometry"/></mxCell><mxCell id="kz2ULfPdmGK-9Kz2NV-o-13" value="Avoir les informations sur les clients" style="ellipse;whiteSpace=wrap;html=1;fillColor=#dae8fc;strokeColor=#6c8ebf;" parent="1" vertex="1"><mxGeometry x="220" y="430" width="260" height="40" as="geometry"/></mxCell><mxCell id="kz2ULfPdmGK-9Kz2NV-o-26" style="edgeStyle=none;rounded=0;orthogonalLoop=1;jettySize=auto;html=1;exitX=0;exitY=0.5;exitDx=0;exitDy=0;entryX=1;entryY=0.3333333333333333;entryDx=0;entryDy=0;entryPerimeter=0;endArrow=none;endFill=0;" parent="1" source="kz2ULfPdmGK-9Kz2NV-o-14" target="kz2ULfPdmGK-9Kz2NV-o-2" edge="1"><mxGeometry relative="1" as="geometry"/></mxCell><mxCell id="81VY2I0V7HuC0ZLJOkPZ-1" style="rounded=0;orthogonalLoop=1;jettySize=auto;html=1;exitX=0;exitY=0.5;exitDx=0;exitDy=0;endArrow=none;endFill=0;" parent="1" source="kz2ULfPdmGK-9Kz2NV-o-14" edge="1"><mxGeometry relative="1" as="geometry"><mxPoint x="70" y="190" as="targetPoint"/></mxGeometry></mxCell><mxCell id="kz2ULfPdmGK-9Kz2NV-o-14" value="&lt;div&gt;Administration des clients&lt;/div&gt;&lt;div&gt;Ajout, Modification, Suppression&lt;br&gt;&lt;/div&gt;" style="ellipse;whiteSpace=wrap;html=1;fillColor=#dae8fc;strokeColor=#6c8ebf;" parent="1" vertex="1"><mxGeometry x="210" y="560" width="260" height="40" as="geometry"/></mxCell><mxCell id="kz2ULfPdmGK-9Kz2NV-o-27" style="edgeStyle=none;rounded=0;orthogonalLoop=1;jettySize=auto;html=1;exitX=0;exitY=0.5;exitDx=0;exitDy=0;entryX=1;entryY=0.3333333333333333;entryDx=0;entryDy=0;entryPerimeter=0;endArrow=none;endFill=0;" parent="1" source="kz2ULfPdmGK-9Kz2NV-o-15" target="kz2ULfPdmGK-9Kz2NV-o-2" edge="1"><mxGeometry relative="1" as="geometry"/></mxCell><mxCell id="kz2ULfPdmGK-9Kz2NV-o-15" value="&lt;div&gt;Administration des producteurs&lt;/div&gt;Ajout, Modification, Suppression" style="ellipse;whiteSpace=wrap;html=1;fillColor=#d5e8d4;strokeColor=#82b366;" parent="1" vertex="1"><mxGeometry x="210" y="615" width="260" height="40" as="geometry"/></mxCell><mxCell id="OSePSIK68hOwo7QI4U12-4" style="edgeStyle=none;rounded=0;orthogonalLoop=1;jettySize=auto;html=1;exitX=0;exitY=0.5;exitDx=0;exitDy=0;entryX=1;entryY=0.3333333333333333;entryDx=0;entryDy=0;entryPerimeter=0;endArrow=none;endFill=0;startArrow=open;startFill=0;" parent="1" source="OSePSIK68hOwo7QI4U12-2" target="kz2ULfPdmGK-9Kz2NV-o-1" edge="1"><mxGeometry relative="1" as="geometry"/></mxCell><mxCell id="OSePSIK68hOwo7QI4U12-2" value="S'authentifier" style="ellipse;whiteSpace=wrap;html=1;fillColor=#d5e8d4;strokeColor=#82b366;" parent="1" vertex="1"><mxGeometry x="220" y="-10" width="260" height="40" as="geometry"/></mxCell><mxCell id="OSePSIK68hOwo7QI4U12-10" style="edgeStyle=none;rounded=0;orthogonalLoop=1;jettySize=auto;html=1;exitX=0;exitY=0.5;exitDx=0;exitDy=0;endArrow=none;endFill=0;" parent="1" source="OSePSIK68hOwo7QI4U12-9" edge="1"><mxGeometry relative="1" as="geometry"><mxPoint x="70" y="190" as="targetPoint"/></mxGeometry></mxCell><mxCell id="OSePSIK68hOwo7QI4U12-9" value="Modifier une commande" style="ellipse;whiteSpace=wrap;html=1;fillColor=#f8cecc;strokeColor=#b85450;" parent="1" vertex="1"><mxGeometry x="220" y="340" width="120" height="40" as="geometry"/></mxCell><mxCell id="OSePSIK68hOwo7QI4U12-12" value="&amp;lt;&amp;lt;include&amp;gt;&amp;gt;" style="text;html=1;strokeColor=none;fillColor=none;align=center;verticalAlign=middle;whiteSpace=wrap;rounded=0;" parent="1" vertex="1"><mxGeometry x="190" y="300" width="60" height="30" as="geometry"/></mxCell><mxCell id="OSePSIK68hOwo7QI4U12-13" value="&amp;lt;&amp;lt;include&amp;gt;&amp;gt;" style="text;html=1;strokeColor=none;fillColor=none;align=center;verticalAlign=middle;whiteSpace=wrap;rounded=0;" parent="1" vertex="1"><mxGeometry x="190" y="130" width="60" height="30" as="geometry"/></mxCell><mxCell id="OSePSIK68hOwo7QI4U12-19" style="edgeStyle=none;rounded=0;orthogonalLoop=1;jettySize=auto;html=1;exitX=0;exitY=0.5;exitDx=0;exitDy=0;endArrow=none;endFill=0;" parent="1" source="OSePSIK68hOwo7QI4U12-18" edge="1"><mxGeometry relative="1" as="geometry"><mxPoint x="70" y="190" as="targetPoint"/></mxGeometry></mxCell><mxCell id="OSePSIK68hOwo7QI4U12-18" value="Vérifier que la commande est valide" style="ellipse;whiteSpace=wrap;html=1;fillColor=#f8cecc;strokeColor=#b85450;" parent="1" vertex="1"><mxGeometry x="220" y="380" width="260" height="40" as="geometry"/></mxCell></root></mxGraphModel></diagram></mxfile>